# xmcd CD database file
#
# Track frame offsets:
#	183
#	13760
#	23498
#	37815
#	50530
#	62093
#	74083
#	84995
#	98145
#	110300
#	120590
#	132125
#	144843
#	157898
#	169830
#	182235
#	195040
#	207853
#	218295
#	230600
#	242610
#	254620
#
# Disc length: 3554 seconds
#
# Revision: 1
# Processed by: cddbd v1.5.2PL0 Copyright (c) Steve Scherf et al.
# Submitted via: CDex 1.79
#
DISCID=1c0de016
DTITLE=Lightnin' Hopkins - The Complete Aladdin Recordings CD1
DYEAR=1991
DGENRE=Blues
TTITLE0=Katie May
TTITLE1=Feel So Bad
TTITLE2=Blues (That Mean Old Twister)
TTITLE3=I Can't Stay Here In YourTown
TTITLE4=Can't Do Like You Used To
TTITLE5=West Coast Blues
TTITLE6=Short Haired Woman
TTITLE7=L.A. Blues
TTITLE8=Big Mama Jump
TTITLE9=Down Baby
TTITLE10=Let Me Play With Your Poodle
TTITLE11=Fast Mail Rambler
TTITLE12=Thinkin' And Worryin'
TTITLE13=Can't Get That Woman Off My Mind
TTITLE14=Woman Woman
TTITLE15=Picture On The Wall
TTITLE16=You're Not Goin' To Worry My Life Anymore
TTITLE17=You're Gonna Miss Me
TTITLE18=Sugar On My Mind
TTITLE19=Nightmare Blues
TTITLE20=Someday Baby
TTITLE21=Come Back Baby
EXTD=YEAR: 1991
EXTT0=
EXTT1=
EXTT2=
EXTT3=
EXTT4=
EXTT5=
EXTT6=
EXTT7=
EXTT8=
EXTT9=
EXTT10=
EXTT11=
EXTT12=
EXTT13=
EXTT14=
EXTT15=
EXTT16=
EXTT17=
EXTT18=
EXTT19=
EXTT20=
EXTT21=
PLAYORDER=
